<?xml version="1.0" encoding="utf-8"?>
<!-- Generator: Adobe Illustrator 25.0.0, SVG Export Plug-In . SVG Version: 6.00 Build 0)  -->
<svg version="1.2" baseProfile="tiny" xmlns="http://www.w3.org/2000/svg" xmlns:xlink="http://www.w3.org/1999/xlink" x="0px"
	 y="0px" viewBox="0 0 1122 1122" overflow="visible" xml:space="preserve">
<g id="BG">
	<rect fill="none" width="1122" height="1122"/>
</g>
<g id="Alphabet_1_">
	<g>
		<linearGradient id="SVGID_1_" gradientUnits="userSpaceOnUse" x1="380.6985" y1="528.5207" x2="526.6995" y2="528.5207">
			<stop  offset="0" style="stop-color:#E9A736"/>
			<stop  offset="0.6429" style="stop-color:#D15B30"/>
			<stop  offset="0.7551" style="stop-color:#D26037"/>
			<stop  offset="1" style="stop-color:#D46A45"/>
		</linearGradient>
		<polygon fill="url(#SVGID_1_)" points="447.35,299.84 526.7,379.19 460.05,757.2 380.7,677.85 		"/>
		<linearGradient id="SVGID_2_" gradientUnits="userSpaceOnUse" x1="446.7188" y1="352.7474" x2="670.0324" y2="352.7474">
			<stop  offset="0" style="stop-color:#D15B30"/>
			<stop  offset="1" style="stop-color:#DE902F"/>
		</linearGradient>
		<path fill="url(#SVGID_2_)" d="M446.72,299.28h201l22.31,106.94c0,0-36.71-34.79-143.33-27.15L446.72,299.28z"/>
		<path fill="#F5DB3A" d="M232.66,803.7l111.28-631.12h176.22c43.22,0,82.48,8.33,117.78,24.98c35.3,16.65,64.69,39.28,88.19,67.86
			c23.49,28.6,40.18,62.03,50.05,100.33c9.87,38.3,10.99,79.1,3.36,122.39c-7.63,43.3-23.14,84.1-46.52,122.4
			c-23.38,38.3-51.86,71.75-85.43,100.33c-33.58,28.6-70.95,51.21-112.13,67.86c-41.17,16.65-83.37,24.98-126.59,24.98H232.66z
			 M380.7,677.15h50.79c26.08,0,51.5-4.85,76.26-14.57c24.74-9.71,47.1-23.17,67.07-40.38c19.96-17.2,36.97-37.32,51.03-60.36
			c14.05-23.03,23.38-47.59,27.98-73.69c4.6-26.08,3.94-50.65-1.99-73.69c-5.93-23.03-15.87-43.01-29.81-59.95
			c-13.95-16.92-31.56-30.39-52.83-40.38c-21.28-9.99-44.96-14.99-71.04-14.99h-50.79L380.7,677.15z"/>
		<linearGradient id="SVGID_3_" gradientUnits="userSpaceOnUse" x1="232.403" y1="570.3483" x2="863.8859" y2="570.3483">
			<stop  offset="0" style="stop-color:#F5DB3A"/>
			<stop  offset="1" style="stop-color:#DD8D79"/>
		</linearGradient>
		<path fill="url(#SVGID_3_)" d="M855.53,445.8c-9.87-38.3-26.56-71.74-50.05-100.33c-7.41-9.01-15.4-17.42-23.98-25.25
			l-64.02-64.05c2.97,3.24,5.86,6.55,8.66,9.96c23.49,28.6,40.18,62.03,50.05,100.33c9.87,38.3,10.99,79.1,3.36,122.39
			c-7.63,43.3-23.14,84.1-46.52,122.4c-23.38,38.3-51.86,71.75-85.43,100.33c-33.58,28.6-70.95,51.25-112.13,67.9
			c-41.17,16.65-83.37,25.02-126.59,25.02h-82.75H232.4l78.57,79.8v-0.02v0.26h176.74h0.51c43.22,0,85.42-8.71,126.59-25.37
			c41.17-16.65,78.54-39.46,112.13-68.05c33.57-28.58,62.05-62.13,85.43-100.43c23.38-38.3,38.89-79.15,46.52-122.44
			C866.53,524.95,865.41,484.1,855.53,445.8z"/>
	</g>
</g>
</svg>
