<?xml version="1.0" encoding="utf-8"?>
<!-- Generator: Adobe Illustrator 25.0.0, SVG Export Plug-In . SVG Version: 6.00 Build 0)  -->
<svg version="1.1" id="Layer_1" xmlns="http://www.w3.org/2000/svg" xmlns:xlink="http://www.w3.org/1999/xlink" x="0px" y="0px"
	 viewBox="0 0 1122 1122" style="enable-background:new 0 0 1122 1122;" xml:space="preserve">
<style type="text/css">
	.st0{fill:none;}
	.st1{fill:url(#SVGID_1_);}
	.st2{fill:url(#SVGID_2_);}
	.st3{fill:#F5DB3A;}
	.st4{fill:url(#SVGID_3_);}
</style>
<g id="BG">
	<rect class="st0" width="1122" height="1122"/>
</g>
<g id="Alphabet_1_">
	<g>
		
			<linearGradient id="SVGID_1_" gradientUnits="userSpaceOnUse" x1="263.4932" y1="561.063" x2="522.8998" y2="561.063" gradientTransform="matrix(1 0 0 -1 0 1122)">
			<stop  offset="0" style="stop-color:#E9A736"/>
			<stop  offset="0.6429" style="stop-color:#D15B30"/>
			<stop  offset="0.7551" style="stop-color:#D26037"/>
			<stop  offset="1" style="stop-color:#D46A45"/>
		</linearGradient>
		<polygon class="st1" points="381.9,200.6 522.9,325.6 404.5,921.3 263.5,796.3 		"/>
		
			<linearGradient id="SVGID_2_" gradientUnits="userSpaceOnUse" x1="380.7947" y1="838.0645" x2="777.5623" y2="838.0645" gradientTransform="matrix(1 0 0 -1 0 1122)">
			<stop  offset="0" style="stop-color:#D15B30"/>
			<stop  offset="1" style="stop-color:#DE902F"/>
		</linearGradient>
		<path class="st2" d="M380.8,199.7h357.1l39.6,168.5c0,0-65.2-54.8-254.7-42.8L380.8,199.7z"/>
		<path class="st3" d="M0.5,994.6L198.2,0h313.1c76.8,0,146.5,13.1,209.3,39.4s114.9,61.9,156.7,106.9
			c41.7,45.1,71.4,97.8,88.9,158.1c17.5,60.4,19.5,124.7,6,192.9c-13.6,68.2-41.1,132.5-82.7,192.9
			c-41.5,60.4-92.1,113.1-151.8,158.1C678,893.4,611.6,929,538.5,955.3c-73.1,26.2-148.1,39.4-224.9,39.4L0.5,994.6L0.5,994.6z
			 M263.5,795.2h90.2c46.3,0,91.5-7.6,135.5-23c44-15.3,83.7-36.5,119.2-63.6c35.5-27.1,65.7-58.8,90.7-95.1
			c25-36.3,41.5-75,49.7-116.1c8.2-41.1,7-79.8-3.5-116.1c-10.5-36.3-28.2-67.8-53-94.5c-24.8-26.7-56.1-47.9-93.9-63.6
			c-37.8-15.7-79.9-23.6-126.2-23.6h-90.2L263.5,795.2z"/>
		
			<linearGradient id="SVGID_3_" gradientUnits="userSpaceOnUse" x1="0" y1="495.134" x2="1122" y2="495.134" gradientTransform="matrix(1 0 0 -1 0 1122)">
			<stop  offset="0" style="stop-color:#F5DB3A"/>
			<stop  offset="1" style="stop-color:#DD8D79"/>
		</linearGradient>
		<path class="st4" d="M1107.2,430.6c-17.5-60.4-47.2-113.1-88.9-158.1c-13.2-14.2-27.4-27.5-42.6-39.8L861.9,131.7
			c5.3,5.1,10.4,10.3,15.4,15.7c41.7,45.1,71.4,97.8,88.9,158.1c17.5,60.4,19.5,124.7,6,192.9C958.6,566.7,931,631,889.5,691.3
			c-41.5,60.4-92.1,113.1-151.8,158.1c-59.7,45.1-126.1,80.8-199.2,107c-73.1,26.2-148.1,39.4-224.9,39.4h-147H0l139.6,125.8v0v0.4
			h314h0.9c76.8,0,151.8-13.7,224.9-40c73.1-26.2,139.5-62.2,199.2-107.2c59.6-45,110.2-97.9,151.8-158.3
			c41.5-60.4,69.1-124.7,82.7-193C1126.7,555.3,1124.7,490.9,1107.2,430.6z"/>
	</g>
</g>
</svg>
