<?xml version="1.0" encoding="UTF-8" standalone="no"?>
<!DOCTYPE svg PUBLIC "-//W3C//DTD SVG 1.1//EN" "http://www.w3.org/Graphics/SVG/1.1/DTD/svg11.dtd">
<svg version="1.1" xmlns="http://www.w3.org/2000/svg" xmlns:xlink="http://www.w3.org/1999/xlink" preserveAspectRatio="xMidYMid meet" viewBox="0 0 640 640" width="640" height="640"><defs><path d="M640 0C640 0 640 0 640 0C640 384 640 597.33 640 640C640 640 640 640 640 640C256 640 42.67 640 0 640C0 640 0 640 0 640C0 256 0 42.67 0 0C0 0 0 0 0 0C384 0 597.33 0 640 0Z" id="k1lqPazSXo"></path><path d="M298.27 185.73L230.73 525.52L150.3 454.22L217.84 114.42L298.27 185.73Z" id="a2hbyJVXi7"></path><linearGradient id="gradientc35F3H4GZO" gradientUnits="userSpaceOnUse" x1="150.3" y1="319.96" x2="298.27" y2="319.96"><stop style="stop-color: #e9a736;stop-opacity: 1" offset="0%"></stop><stop style="stop-color: #d15b30;stop-opacity: 1" offset="64.29%"></stop><stop style="stop-color: #d26037;stop-opacity: 1" offset="75.51%"></stop><stop style="stop-color: #d46a45;stop-opacity: 1" offset="100%"></stop></linearGradient><path d="M420.91 113.91C434.46 171.58 441.99 203.62 443.49 210.02C443.49 210.02 406.3 178.77 298.21 185.61C292.81 180.83 265.81 156.93 217.21 113.91L420.91 113.91Z" id="f1XPxX4TNB"></path><linearGradient id="gradientb2PUvVUl" gradientUnits="userSpaceOnUse" x1="217.21" y1="161.96" x2="443.53" y2="161.96"><stop style="stop-color: #d15b30;stop-opacity: 1" offset="0%"></stop><stop style="stop-color: #de902f;stop-opacity: 1" offset="100%"></stop></linearGradient><path d="M113.06 0C220.21 0 279.74 0 291.65 0C335.46 0 375.22 7.47 411.04 22.47C446.86 37.48 476.58 57.78 500.42 83.45C524.21 109.18 541.15 139.24 551.13 173.63C561.11 208.09 562.25 244.76 554.55 283.66C546.8 322.57 531.11 359.24 507.38 393.7C483.71 428.15 454.84 458.21 420.79 483.88C386.74 509.6 348.86 529.91 307.17 544.91C265.47 559.86 222.69 567.39 178.88 567.39C166.97 567.38 107.44 567.36 0.29 567.33L0.29 567.33L113.06 0ZM201.75 453.59C228.16 453.59 253.95 449.25 279.04 440.47C304.14 431.74 326.79 419.65 347.04 404.19C367.29 388.73 384.51 370.65 398.77 349.95C413.03 329.24 422.45 307.17 427.12 283.72C431.8 260.28 431.12 238.2 425.13 217.5C419.14 196.79 409.04 178.82 394.89 163.59C380.75 148.36 362.89 136.27 341.33 127.32C319.77 118.36 295.76 113.85 269.35 113.85C265.92 113.85 248.77 113.85 217.9 113.85L150.3 453.59C181.17 453.59 198.32 453.59 201.75 453.59Z" id="b65S6mqSD"></path><path d="M580.85 155.44C573.32 147.34 565.22 139.75 556.55 132.73C550.06 126.97 498.13 80.88 491.64 75.12C494.66 78.03 497.57 81 500.42 84.08C524.21 109.8 541.15 139.86 551.13 174.26C561.11 208.71 562.25 245.39 554.55 284.29C546.8 323.25 531.05 359.93 507.38 394.32C483.71 428.78 454.84 458.84 420.79 484.51C386.74 510.23 348.86 530.6 307.17 545.54C265.47 560.48 222.69 568.01 178.88 568.01C173.29 568.01 145.34 568.01 95.03 568.01L0 568.01L79.63 639.77L79.63 639.77L79.63 640L258.74 640C259.05 640 259.22 640 259.25 640C303.06 640 345.84 632.19 387.54 617.18C429.23 602.24 467.11 581.7 501.16 556.04C535.16 530.37 564.02 500.19 587.75 465.74C611.42 431.29 627.17 394.61 634.92 355.65C642.68 316.75 641.54 280.01 631.56 245.62C621.58 211.17 604.63 181.11 580.85 155.44Z" id="f32w0ou6Al"></path><linearGradient id="gradienth2LSe7HovP" gradientUnits="userSpaceOnUse" x1="0" y1="357.57" x2="640" y2="357.57"><stop style="stop-color: #f5db3a;stop-opacity: 1" offset="0%"></stop><stop style="stop-color: #dd8d79;stop-opacity: 1" offset="100%"></stop></linearGradient></defs><g><g><g><use xlink:href="#k1lqPazSXo" opacity="1" fill="#000000" fill-opacity="0"></use><g><use xlink:href="#k1lqPazSXo" opacity="1" fill-opacity="0" stroke="#000000" stroke-width="1" stroke-opacity="0"></use></g></g><g><use xlink:href="#a2hbyJVXi7" opacity="1" fill="url(#gradientc35F3H4GZO)"></use><g><use xlink:href="#a2hbyJVXi7" opacity="1" fill-opacity="0" stroke="#000000" stroke-width="1" stroke-opacity="0"></use></g></g><g><use xlink:href="#f1XPxX4TNB" opacity="1" fill="url(#gradientb2PUvVUl)"></use><g><use xlink:href="#f1XPxX4TNB" opacity="1" fill-opacity="0" stroke="#000000" stroke-width="1" stroke-opacity="0"></use></g></g><g><use xlink:href="#b65S6mqSD" opacity="1" fill="#f5db3a" fill-opacity="1"></use><g><use xlink:href="#b65S6mqSD" opacity="1" fill-opacity="0" stroke="#000000" stroke-width="1" stroke-opacity="0"></use></g></g><g><use xlink:href="#f32w0ou6Al" opacity="1" fill="url(#gradienth2LSe7HovP)"></use><g><use xlink:href="#f32w0ou6Al" opacity="1" fill-opacity="0" stroke="#000000" stroke-width="1" stroke-opacity="0"></use></g></g></g></g></svg>